<?xml version="1.0" encoding="utf-8"?>
<!-- Generator: Adobe Illustrator 16.0.4, SVG Export Plug-In . SVG Version: 6.00 Build 0)  -->
<!DOCTYPE svg PUBLIC "-//W3C//DTD SVG 1.1//EN" "http://www.w3.org/Graphics/SVG/1.1/DTD/svg11.dtd">
<svg version="1.1" id="Layer_1" xmlns="http://www.w3.org/2000/svg" xmlns:xlink="http://www.w3.org/1999/xlink" x="0px" y="0px"
	 width="577.94px" height="105.025px" viewBox="0 0 577.94 105.025" enable-background="new 0 0 577.94 105.025"
	 xml:space="preserve">
<g>
	<path fill="#00583D" d="M137.386,17.761h4.977c2.811,0,3.594-0.046,4.101-0.322h0.369v3.641v4.102h-0.415
		c-0.507-0.277-1.198-0.369-3.963-0.369h-5.069v1.936c0,9.032,0,10.875,0.553,11.244v0.322h-4.747h-4.977v-0.415
		c0.599-0.414,0.599-2.119,0.599-15.575v-4.885c0-12.488,0-14.101-0.553-14.607V2.371h10.138h9.862c0,2.534-0.046,4.193-0.046,7.695
		h-0.46c-0.415-0.507-2.581-0.646-5.392-0.646h-4.977V17.761z"/>
	<path fill="#00583D" d="M165.591,22.324c0,13.456,0,14.977,0.691,15.714v0.276h-4.792h-5.115v-0.322
		c0.645-0.646,0.645-2.212,0.645-15.668v-4.885c0-12.534,0-14.147-0.599-14.7V2.371h4.884h4.885v0.322
		c-0.553,0.599-0.599,2.212-0.599,14.746V22.324z"/>
	<path fill="#00583D" d="M182.644,9.467h-6.083c-1.382,0-2.626,0.23-3.133,0.69h-0.369c0-2.765-0.046-5.392-0.046-7.787h11.105
		h5.208h11.428v7.787h-0.369c-0.645-0.507-1.751-0.69-3.087-0.69h-6.129v12.856c0,13.456,0,15.714,0.691,15.714v0.276h-4.931h-4.931
		v-0.276c0.645-0.461,0.645-2.258,0.645-15.714V9.467z"/>
	<path fill="#00583D" d="M204.583,20.25c0-10.369,7.834-18.341,21.382-18.341c1.244,0,2.12,0.046,3.18,0.138
		c1.014,0.093,2.12,0.277,2.949,0.461c-0.139,2.442-0.185,4.424-0.323,8.295h-0.323c-0.507-0.461-1.106-0.737-1.889-0.968
		c-0.921-0.23-2.212-0.368-3.548-0.368c-7.327,0-12.166,4.285-12.166,10.783c0,6.635,4.378,11.013,11.29,11.013
		c1.613,0,2.995-0.046,4.286-0.414c0.737-0.185,1.429-0.461,2.166-0.968h0.276c0.046,1.843,0.184,6.267,0.23,8.064
		c-0.646,0.184-2.028,0.46-3.042,0.645c-1.797,0.23-2.996,0.276-4.562,0.276c-11.428,0-19.907-7.188-19.907-18.57V20.25z"/>
	<path fill="#00583D" d="M271.967,22.324c0,13.456,0,15.438,0.691,15.714v0.276h-4.792h-5.069v-0.276
		c0.645-0.276,0.645-2.258,0.645-12.673v-1.566h-13.548v1.566c0,10.415,0,12.396,0.645,12.673v0.276h-4.931h-4.931v-0.276
		c0.645-0.276,0.645-2.258,0.645-15.714v-4.885c0-12.534,0-14.516-0.599-14.792V2.371h4.931h4.838v0.276
		c-0.599,0.276-0.599,2.258-0.599,12.58v1.336h13.548v-1.382c0-10.276,0-12.258-0.599-12.534V2.371h5.069h4.608v0.276
		c-0.553,0.276-0.553,2.258-0.553,14.792V22.324z"/>
	<path fill="#00583D" d="M305.052,28.176c0,3.594-2.12,6.543-4.608,8.064c-2.442,1.475-5.483,2.212-11.521,2.212
		c-1.521,0-2.673-0.047-4.332-0.093c-0.691,0-1.889-0.138-3.317-0.138v-0.323c0.599-0.184,0.599-2.258,0.599-15.575v-4.885
		c0-12.534,0-14.239-0.507-14.607V2.508c0.875-0.046,2.396-0.138,3.641-0.184c1.337-0.093,3.502-0.093,5.345-0.093
		c2.166,0,4.701,0.323,6.545,0.876c2.35,0.691,6.727,2.856,6.727,8.848c0,3.363-2.073,6.543-5.438,7.511v0.093
		c3.595,0.737,6.867,4.009,6.867,8.571V28.176z M295.375,12.785c0-2.258-1.521-3.548-3.917-3.548c-0.46,0-1.244,0.046-1.659,0.092
		v7.097c0.553,0.046,0.969,0.046,1.337,0.046c0.553,0,1.198-0.046,1.981-0.322c1.06-0.415,2.258-1.475,2.258-3.318V12.785z
		 M296.388,27.116c0-1.935-1.336-3.18-2.719-3.594c-0.645-0.23-1.613-0.369-2.258-0.369c-0.369,0-1.152,0.047-1.613,0.093v7.604
		c0,0.23,0.047,0.276,0.139,0.322c0.414,0.046,1.105,0.046,1.659,0.046c0.876,0,1.843-0.185,2.673-0.599
		c1.06-0.507,2.119-1.613,2.119-3.456V27.116z"/>
	<path fill="#00583D" d="M312.751,17.439c0-12.534,0-14.516-0.553-14.792V2.371h4.885h4.977v0.276
		c-0.599,0.276-0.599,2.258-0.599,14.792v4.147c0,3.088,0.322,5.115,1.151,6.544c1.061,1.843,3.272,2.856,5.761,2.856
		c2.258,0,4.239-0.968,5.392-2.719c0.968-1.475,1.244-3.548,1.244-6.682v-4.147c0-12.488,0-14.516-0.645-14.792V2.371h4.93h4.701
		v0.276c-0.553,0.276-0.553,2.304-0.553,14.792v4.102c0,4.838-0.554,7.787-1.936,10.414c-1.752,3.595-6.498,7.051-13.041,7.051
		c-6.867,0-11.936-2.903-14.193-7.649c-1.198-2.535-1.521-5.346-1.521-9.678V17.439z"/>
	<path fill="#00583D" d="M352.894,17.439c0-12.534,0-14.47-0.553-14.654V2.508c0.876-0.092,2.443-0.184,3.918-0.23
		c1.151-0.046,3.455-0.092,4.838-0.092c2.857,0,5.161,0.322,7.234,0.876c3.227,0.968,7.189,3.732,7.189,10.184
		c0,3.917-1.89,6.728-3.364,7.972c-0.829,0.737-1.797,1.383-2.442,1.659v0.139c0.783,1.014,1.613,2.304,7.834,11.29
		c1.105,1.566,2.488,3.41,2.903,3.732v0.276h-4.793h-3.594c-0.507,0-1.198,0-1.705-0.185c-2.627-4.147-5.669-8.985-8.479-13.455
		h-0.875v2.165c0,8.94,0,10.922,0.507,11.198v0.276h-4.517h-4.654v-0.276c0.553-0.276,0.553-2.258,0.553-15.714V17.439z
		 M367.18,13.752c0-2.765-1.705-4.47-4.517-4.47c-0.783,0-1.29,0.046-1.658,0.092v9.263c0.368,0.046,0.829,0.046,1.244,0.046
		c1.197,0,2.258-0.368,3.041-0.922c0.875-0.599,1.89-1.935,1.89-3.963V13.752z"/>
	<path fill="#00583D" d="M383.083,20.296c0-10.646,8.434-18.479,21.475-18.479c1.751,0,3.18,0.093,4.654,0.23
		c1.151,0.139,2.35,0.323,3.64,0.6c-0.138,2.442-0.229,4.285-0.322,8.295h-0.322c-0.461-0.461-1.383-0.83-2.396-1.106
		c-1.244-0.368-2.857-0.553-4.931-0.553c-7.327,0-12.534,4.102-12.534,10.875c0,6.774,4.332,11.105,10.368,11.105
		c0.554,0,1.29,0,1.981-0.092v-2.765c0-3.456-0.046-6.636-0.599-7.005V21.08c1.936,0,3.502,0.046,4.839,0.046
		c2.165,0,3.363-0.046,4.7-0.046v0.322c-0.507,0.369-0.507,2.12-0.507,7.235v4.146c0,1.844,0,3.733,0.046,4.654
		c-2.166,0.83-5.346,1.429-10.092,1.429c-11.152,0-20-7.097-20-18.524V20.296z"/>
	<path fill="#00583D" d="M457.004,28.683c0,6.036-5.069,10.184-12.212,10.184c-2.672,0-5.668-0.507-7.419-1.29
		c0.093-2.673,0.139-4.009,0.276-8.156h0.277c0.553,0.599,1.197,1.014,1.889,1.336c1.106,0.461,2.488,0.691,4.056,0.691
		c2.304,0,3.917-1.014,3.917-3.134c0-1.29-0.876-2.396-2.351-3.594c-1.29-1.014-2.534-2.12-3.548-3.042
		c-2.442-2.166-4.378-5.022-4.378-8.894c0-5.576,3.824-10.645,12.35-10.645c1.751,0,4.056,0.276,5.392,0.691
		c-0.139,2.902-0.139,4.193-0.23,8.11h-0.322c-0.369-0.415-1.106-0.83-1.705-1.061c-0.691-0.23-1.429-0.368-2.442-0.368
		c-2.442,0-4.102,1.198-4.102,3.134c0,1.197,0.507,1.981,1.383,2.856c0.829,0.876,2.396,2.074,4.331,3.779
		c2.996,2.672,4.839,5.345,4.839,9.354V28.683z"/>
	<path fill="#00583D" d="M472.26,9.467h-6.083c-1.383,0-2.627,0.23-3.134,0.69h-0.368c0-2.765-0.046-5.392-0.046-7.787h11.105h5.207
		h11.428v7.787h-0.368c-0.646-0.507-1.751-0.69-3.088-0.69h-6.129v12.856c0,13.456,0,15.714,0.691,15.714v0.276h-4.931h-4.931
		v-0.276c0.646-0.461,0.646-2.258,0.646-15.714V9.467z"/>
	<path fill="#00583D" d="M500.375,33.107c-1.106,2.673-1.844,4.608-1.429,4.885v0.322h-4.885h-4.885v-0.322
		c0.507-0.276,1.383-2.212,7.373-15.714l9.078-20.553h1.244l8.939,20.553c5.898,13.502,6.774,15.438,7.281,15.714v0.322h-4.839
		h-5.76v-0.322c0.461-0.276-0.322-2.212-1.383-4.885H500.375z M508.669,26.333v-0.092c-1.797-4.608-2.488-6.729-2.811-7.88h-0.046
		c-0.276,1.151-1.06,3.271-2.903,7.88v0.092H508.669z"/>
	<path fill="#00583D" d="M532.637,9.467h-6.083c-1.383,0-2.627,0.23-3.134,0.69h-0.368c0-2.765-0.046-5.392-0.046-7.787h11.105
		h5.207h11.428v7.787h-0.368c-0.646-0.507-1.751-0.69-3.088-0.69h-6.129v12.856c0,13.456,0,15.714,0.691,15.714v0.276h-4.931h-4.931
		v-0.276c0.646-0.461,0.646-2.258,0.646-15.714V9.467z"/>
	<path fill="#00583D" d="M558.125,17.439c0-12.488,0-14.516-0.553-14.792V2.371h10.184h9.815c0,2.488-0.046,4.193-0.046,7.695
		h-0.276c-0.368-0.507-2.673-0.646-5.53-0.646h-5.022v7.189h5.069c2.902,0,3.732-0.047,4.101-0.323h0.276v3.733v4.009h-0.276
		c-0.322-0.276-1.244-0.369-4.009-0.369h-5.161v6.405c0,0.508,0,0.83,0.276,1.106h7.005c1.981-0.046,3.317-0.139,3.64-0.599h0.323
		c-0.046,3.732-0.093,5.253-0.093,7.741h-9.262h-11.06v-0.276c0.599-0.276,0.599-2.258,0.599-15.714V17.439z"/>
	<path fill="#00583D" d="M128.74,76.164c0-16.677,0-19.139-0.738-19.508v-0.308h3.631h3.692v0.308c-0.8,0.369-0.8,2.831-0.8,19.508
		v7.631c0,5.169,0.739,8.615,2.523,11.2c2.031,3.076,5.969,4.738,9.846,4.738c4.123,0,7.63-1.293,9.969-4.308
		c2.031-2.646,2.892-6.523,2.892-12.062v-7.2c0-16.615,0-19.139-0.8-19.508v-0.308h3.569h3.569v0.308
		c-0.738,0.369-0.738,2.893-0.738,19.508v7.385c0,6.769-1.231,11.385-4,14.954c-2.831,3.877-8.062,6.584-14.523,6.584
		c-6.523,0-11.877-2.522-14.893-7.262c-2.277-3.322-3.2-7.199-3.2-13.723V76.164z"/>
	<path fill="#00583D" d="M224.305,104.963h-0.739c-12.062-14.03-19.077-22.215-23.385-27.2c-2.769-3.2-4.615-5.292-7.631-9.169
		h-0.123c0.062,2.339,0.062,4.738,0.062,15.139c0,17.415,0,19.938,0.8,20.308v0.308h-3.569h-3.323v-0.308
		c0.8-0.369,0.8-2.893,0.8-20.677V55.733h0.738c12.431,14.584,19.569,22.953,23.877,27.938c2.523,2.954,4.492,5.23,7.077,8.554
		h0.123V75.856c0-16.308,0-18.831-0.8-19.2v-0.308h3.446h3.323v0.308c-0.677,0.369-0.677,2.893-0.677,19.508V104.963z"/>
	<path fill="#00583D" d="M253.714,83.364c0,17.784,0,20.123,0.861,20.677v0.308h-3.692h-3.692v-0.369c0.8-0.492,0.8-2.77,0.8-20.615
		v-7.2c0-16.677,0-19.016-0.8-19.385v-0.431h3.631h3.692v0.369c-0.738,0.431-0.8,2.77-0.8,19.446V83.364z"/>
	<path fill="#00583D" d="M293.404,105.025h-0.678l-12.062-28.861c-7.015-16.677-8.062-19.139-8.8-19.508v-0.308h3.815h4.062v0.308
		c-0.8,0.308,0.185,2.831,6.338,17.784c3.57,8.862,5.047,12.616,7.139,18.523h0.123c2.093-5.846,3.446-9.477,7.139-18.523
		c6.031-14.892,7.077-17.415,6.339-17.784v-0.308h4.062h3.385v0.308c-0.738,0.369-1.724,2.831-8.738,19.508L293.404,105.025z"/>
	<path fill="#00583D" d="M331.183,76.164c0-16.615,0-19.139-0.678-19.508v-0.308h11.139h11.57c0,1.969-0.062,3.938-0.062,5.846
		h-0.307c-0.432-0.738-2.709-0.923-6.339-0.923h-9.601v16.123h9.416c3.631,0,4.861-0.062,5.292-0.492h0.246v2.893v3.077h-0.246
		c-0.431-0.555-1.661-0.555-5.169-0.555h-9.539v16.247c0,0.492,0.062,0.615,0.432,0.738h11.691c2.523,0,4.123-0.062,4.555-0.8h0.307
		c0,1.723-0.061,3.877-0.061,5.846h-11.385h-12v-0.308c0.738-0.369,0.738-2.831,0.738-20.677V76.164z"/>
	<path fill="#00583D" d="M375.301,76.164c0-16.677,0-19.139-0.738-19.385v-0.308c0.923-0.062,2.031-0.123,3.385-0.123
		c1.415-0.062,3.508-0.185,4.677-0.185c3.077,0,6.031,0.308,8.677,1.292c3.016,1.046,8.062,4.431,8.062,12
		c0,6.462-3.691,9.97-6.215,11.569c-1.23,0.861-2.831,1.661-4.123,2.031v0.123c0.677,0.923,1.6,2.153,12.185,16.123
		c1.538,1.907,3.569,4.369,4.246,4.738v0.308h-3.508h-2.522c-0.493,0-1.047-0.062-1.539-0.246c-3.692-5.107-8-11.077-14.646-20.062
		h-2.399v1.846c0,15.323,0,17.785,0.738,18.154v0.308h-3.446h-3.569v-0.308c0.738-0.369,0.738-2.831,0.738-20.677V76.164z
		 M393.517,69.763c0-5.477-4-8.615-9.908-8.615c-1.046,0-2.276,0.062-2.769,0.123v18.216c0.431,0.062,1.169,0.062,1.969,0.062
		c1.97,0,4-0.431,5.539-1.231c2.522-1.23,5.169-3.754,5.169-8.492V69.763z"/>
	<path fill="#00583D" d="M442.25,92.348c0,6.339-5.046,12.677-14.769,12.677c-2.646,0-5.847-0.554-7.692-1.292
		c0.185-2.585,0.185-3.692,0.308-6.154h0.308c0.492,0.677,1.23,1.17,2.153,1.601c1.231,0.431,3.016,0.738,4.924,0.738
		c4.615,0,8.677-2.831,8.677-7.631c0-2.831-1.17-5.107-4.062-7.569c-2.031-1.784-3.815-3.077-5.785-4.923
		c-3.754-3.508-5.661-6.523-5.661-11.2c0-6.585,5.107-12.554,14.153-12.554c2.339,0,4.493,0.308,5.908,0.738
		c-0.123,2.03-0.185,3.508-0.246,6.03h-0.308c-0.492-0.615-1.293-1.046-2.031-1.292c-0.861-0.246-1.969-0.369-2.954-0.369
		c-4.861,0-8.554,2.77-8.554,7.2c0,2.585,0.985,4.431,2.77,6.276c1.784,1.847,3.815,3.262,6.4,5.539
		c3.815,3.385,6.461,6.646,6.461,12.123V92.348z"/>
	<path fill="#00583D" d="M469.825,83.364c0,17.784,0,20.123,0.861,20.677v0.308h-3.692h-3.692v-0.369c0.8-0.492,0.8-2.77,0.8-20.615
		v-7.2c0-16.677,0-19.016-0.8-19.385v-0.431h3.631h3.692v0.369c-0.738,0.431-0.8,2.77-0.8,19.446V83.364z"/>
	<path fill="#00583D" d="M504.044,61.271h-9.908c-2.338,0-3.446,0.185-4.123,0.923h-0.492v-5.846h14.831h4.984h15.016v5.846h-0.431
		c-0.738-0.738-2.093-0.923-4.246-0.923h-9.847v22.093c0,17.846,0,20.431,0.801,20.677v0.308h-3.631h-3.754v-0.369
		c0.8-0.369,0.8-2.77,0.8-20.615V61.271z"/>
	<path fill="#00583D" d="M561.455,85.148v1.292c0,14.4,0,17.17,0.801,17.601v0.308h-3.631h-3.754v-0.369
		c0.8-0.369,0.8-3.139,0.8-17.478v-1.046l-4.308-8.123c-9.785-18.092-10.77-20.246-11.508-20.677v-0.308h3.877h4v0.308
		c-0.738,0.369,0.492,2.893,5.415,12.308c2.093,4.062,4.062,7.877,5.478,10.708h0.185c1.292-2.893,3.2-6.523,5.415-10.646
		c4.8-9.415,6.031-12.062,5.292-12.369v-0.308h4.062h3.385v0.308c-0.615,0.431-1.538,2.523-11.385,20.861L561.455,85.148z"/>
</g>
<path fill="#00583D" d="M54.903,106.45V63.937l29.862-13.3v42.512L54.903,106.45z M84.766,29.213V0L54.903,13.3v30.099
	L84.766,29.213z"/>
<polygon fill="#FFC425" points="0,94.37 0,0.247 29.868,13.545 29.868,106.784 "/>
</svg>
